<?xml version="1.0" encoding="iso-8859-1"?>
<!-- Uploaded to: SVG Repo, www.svgrepo.com, Generator: SVG Repo Mixer Tools -->
<!DOCTYPE svg PUBLIC "-//W3C//DTD SVG 1.1//EN" "http://www.w3.org/Graphics/SVG/1.1/DTD/svg11.dtd">
<svg fill="#000000" version="1.1" id="Capa_1" xmlns="http://www.w3.org/2000/svg" xmlns:xlink="http://www.w3.org/1999/xlink" 
	 width="800px" height="800px" viewBox="0 0 319.148 319.149"
	 xml:space="preserve">
<g>
	<g>
		<path d="M61.503,11.397H34.945c-12,0-21.73,9.729-21.73,21.73v36.104c-4.417,2.353-7.244,5.737-7.244,9.533
			c0,4.306,3.606,8.096,9.09,10.437c1.447-1.587,3.021-3.055,4.808-4.264c4.311-2.905,9.497-4.608,15.076-4.608h26.553
			c5.58,0,10.771,1.704,15.076,4.608c1.787,1.204,3.355,2.677,4.808,4.264c5.483-2.34,9.087-6.131,9.087-10.437
			c0-3.795-2.825-7.18-7.242-9.533V33.127C83.228,21.126,73.504,11.397,61.503,11.397z M33.741,31.472h28.966
			c1.463,0,2.651,1.188,2.651,2.651s-1.188,2.651-2.651,2.651H33.741c-1.462,0-2.651-1.188-2.651-2.651S32.278,31.472,33.741,31.472
			z"/>
		<path d="M171.862,11.397h-26.554c-12,0-21.73,9.729-21.73,21.73v36.104c-4.417,2.353-7.242,5.737-7.242,9.533
			c0,4.306,3.604,8.096,9.088,10.437c1.447-1.587,3.021-3.055,4.808-4.264c4.311-2.905,9.497-4.608,15.076-4.608h26.554
			c5.582,0,10.771,1.704,15.078,4.608c1.781,1.204,3.355,2.677,4.806,4.264c5.483-2.34,9.088-6.131,9.088-10.437
			c0-3.795-2.822-7.18-7.244-9.533V33.127C193.59,21.126,183.865,11.397,171.862,11.397z M144.104,31.472h28.969
			c1.461,0,2.651,1.188,2.651,2.651s-1.19,2.651-2.651,2.651h-28.969c-1.463,0-2.651-1.188-2.651-2.651
			S142.637,31.472,144.104,31.472z"/>
		<path d="M282.229,11.397h-26.554c-12.003,0-21.732,9.729-21.732,21.73v36.104c-4.417,2.353-7.244,5.737-7.244,9.533
			c0,4.306,3.604,8.096,9.093,10.437c1.444-1.587,3.019-3.055,4.806-4.264c4.308-2.905,9.496-4.608,15.078-4.608h26.554
			c5.577,0,10.771,1.704,15.073,4.608c1.787,1.204,3.355,2.677,4.811,4.264c5.479-2.34,9.088-6.131,9.088-10.437
			c0-3.795-2.827-7.18-7.244-9.533V33.127C303.95,21.126,294.227,11.397,282.229,11.397z M254.464,31.472h28.966
			c1.46,0,2.651,1.188,2.651,2.651s-1.191,2.651-2.651,2.651h-28.966c-1.461,0-2.651-1.188-2.651-2.651
			S253.003,31.472,254.464,31.472z"/>
		<path d="M15.061,163.437c4.948-5.417,11.993-8.875,19.884-8.875h26.553c7.892,0,14.937,3.459,19.884,8.875
			c5.483-2.341,9.087-6.134,9.087-10.439c0-3.795-2.825-7.179-7.242-9.533V107.36c0-6.602-3.006-12.446-7.656-16.433
			c-1.157-0.992-2.408-1.846-3.754-2.582c-3.081-1.675-6.561-2.716-10.32-2.716H34.945c-3.754,0-7.234,1.041-10.32,2.716
			c-1.347,0.73-2.597,1.59-3.754,2.582c-4.65,3.987-7.656,9.826-7.656,16.433v36.104c-4.417,2.354-7.244,5.737-7.244,9.533
			C5.979,157.309,9.577,161.096,15.061,163.437z M62.707,111.008H33.741c-1.462,0-2.651-1.188-2.651-2.651
			c0-1.462,1.188-2.651,2.651-2.651h28.966c1.463,0,2.651,1.188,2.651,2.651C65.358,109.82,64.17,111.008,62.707,111.008z"/>
		<path d="M125.425,163.437c4.947-5.417,11.992-8.875,19.884-8.875h26.554c7.892,0,14.934,3.459,19.884,8.875
			c5.483-2.341,9.088-6.134,9.088-10.439c0-3.795-2.822-7.179-7.244-9.533V107.36c0-6.602-3.004-12.446-7.653-16.433
			c-1.16-0.992-2.408-1.846-3.755-2.582c-3.081-1.675-6.561-2.716-10.319-2.716h-26.554c-3.754,0-7.234,1.041-10.32,2.716
			c-1.346,0.73-2.597,1.59-3.754,2.582c-4.65,3.987-7.656,9.826-7.656,16.433v36.104c-4.417,2.354-7.242,5.737-7.242,9.533
			C116.337,157.309,119.941,161.096,125.425,163.437z M173.063,111.008H144.1c-1.463,0-2.651-1.188-2.651-2.651
			c0-1.462,1.188-2.651,2.651-2.651h28.964c1.465,0,2.651,1.188,2.651,2.651C175.715,109.82,174.534,111.008,173.063,111.008z"/>
		<path d="M235.78,163.437c4.951-5.417,11.993-8.875,19.885-8.875h26.553c7.892,0,14.939,3.459,19.885,8.875
			c5.488-2.341,9.093-6.134,9.093-10.439c0-3.795-2.827-7.179-7.245-9.533V107.36c0-6.602-3.008-12.446-7.658-16.433
			c-1.154-0.992-2.402-1.846-3.749-2.582c-3.086-1.675-6.565-2.716-10.325-2.716h-26.553c-3.749,0-7.239,1.041-10.315,2.716
			c-1.346,0.73-2.599,1.59-3.759,2.582c-4.65,3.987-7.653,9.826-7.653,16.433v36.104c-4.417,2.354-7.239,5.737-7.239,9.533
			C226.698,157.309,230.303,161.096,235.78,163.437z M283.43,111.008h-28.966c-1.461,0-2.651-1.188-2.651-2.651
			c0-1.462,1.19-2.651,2.651-2.651h28.966c1.46,0,2.651,1.188,2.651,2.651C286.081,109.82,284.89,111.008,283.43,111.008z"/>
		<path d="M278.884,245.417v-2.65v-2.651h10.584c12.003,0,21.732-5.769,21.732-12.878c0-3.796-2.827-7.183-7.244-9.533v-36.102
			c0-4.412-1.331-8.503-3.594-11.931c-0.528-0.803-1.16-1.522-1.792-2.247c-0.704-0.818-1.455-1.564-2.268-2.258
			c-3.801-3.252-8.679-5.297-14.074-5.297h-26.554c-5.4,0-10.273,2.045-14.074,5.297c-0.817,0.704-1.574,1.449-2.278,2.258
			c-0.632,0.725-1.263,1.444-1.791,2.247c-2.258,3.428-3.589,7.519-3.589,11.931v36.102c-4.417,2.351-7.244,5.737-7.244,9.533
			c0,7.109,9.735,12.878,21.728,12.878h14.551v2.651v2.65v10.637h-95.443v-10.637v-2.65v-2.651h11.573
			c11.998,0,21.728-5.769,21.728-12.878c0-3.796-2.822-7.183-7.244-9.533v-36.102c0-4.412-1.326-8.503-3.589-11.931
			c-0.528-0.803-1.16-1.522-1.792-2.247c-0.704-0.818-1.455-1.564-2.272-2.258c-3.801-3.252-8.679-5.297-14.074-5.297h-26.554
			c-5.398,0-10.271,2.045-14.074,5.297c-0.815,0.704-1.569,1.449-2.273,2.258c-0.632,0.725-1.264,1.444-1.792,2.247
			c-2.261,3.428-3.591,7.519-3.591,11.931v36.102c-4.417,2.351-7.242,5.737-7.242,9.533c0,7.109,9.73,12.878,21.728,12.878h13.559
			v2.651v2.65v10.637H56.18v-10.637v-2.65v-2.651h12.567c11.998,0,21.728-5.769,21.728-12.878c0-3.796-2.825-7.183-7.242-9.533
			v-36.102c0-4.412-1.331-8.503-3.591-11.931c-0.528-0.803-1.16-1.522-1.792-2.247c-0.704-0.818-1.458-1.564-2.273-2.258
			c-3.803-3.252-8.676-5.297-14.074-5.297H34.945c-5.398,0-10.271,2.045-14.074,5.297c-0.815,0.704-1.569,1.449-2.273,2.258
			c-0.632,0.725-1.264,1.444-1.792,2.247c-2.26,3.428-3.591,7.519-3.591,11.931v36.102c-4.417,2.351-7.244,5.737-7.244,9.533
			c0,7.109,9.732,12.878,21.73,12.878h12.567v2.651v2.65v10.637H0v51.698h7.954h7.954v-35.792h287.334v35.792h7.954h7.953v-51.698
			h-40.275v-10.637H278.884z M254.464,185.242c-1.461,0-2.651-1.186-2.651-2.651c0-1.465,1.19-2.65,2.651-2.65h28.966
			c1.46,0,2.651,1.186,2.651,2.65c0,1.466-1.191,2.651-2.651,2.651H254.464z M144.104,185.242c-1.463,0-2.651-1.186-2.651-2.651
			c0-1.465,1.188-2.65,2.651-2.65h28.969c1.461,0,2.651,1.186,2.651,2.65c0,1.466-1.19,2.651-2.651,2.651H144.104z M33.741,185.242
			c-1.462,0-2.651-1.186-2.651-2.651c0-1.465,1.188-2.65,2.651-2.65h28.966c1.463,0,2.651,1.186,2.651,2.65
			c0,1.466-1.188,2.651-2.651,2.651H33.741z"/>
	</g>
</g>
</svg>